<mxfile host="65bd71144e">
    <diagram id="UpeDOt9tmsEQG5I8E9b3" name="Page-1">
        <mxGraphModel dx="1627" dy="1275" grid="1" gridSize="10" guides="1" tooltips="1" connect="1" arrows="1" fold="1" page="1" pageScale="1" pageWidth="850" pageHeight="1100" math="0" shadow="0">
            <root>
                <mxCell id="0"/>
                <mxCell id="1" parent="0"/>
                <mxCell id="7" value="Anggota Koperasi" style="shape=umlLifeline;perimeter=lifelinePerimeter;whiteSpace=wrap;html=1;container=1;collapsible=0;recursiveResize=0;outlineConnect=0;" vertex="1" parent="1">
                    <mxGeometry x="150" y="150" width="100" height="540" as="geometry"/>
                </mxCell>
                <mxCell id="9" value="" style="html=1;points=[];perimeter=orthogonalPerimeter;fillColor=strokeColor;" vertex="1" parent="7">
                    <mxGeometry x="48" y="90" width="5" height="80" as="geometry"/>
                </mxCell>
                <mxCell id="46" value="" style="html=1;points=[];perimeter=orthogonalPerimeter;fillColor=strokeColor;" vertex="1" parent="7">
                    <mxGeometry x="47.5" y="300" width="5" height="80" as="geometry"/>
                </mxCell>
                <mxCell id="47" value="" style="html=1;points=[];perimeter=orthogonalPerimeter;fillColor=strokeColor;" vertex="1" parent="7">
                    <mxGeometry x="47.5" y="430" width="5" height="80" as="geometry"/>
                </mxCell>
                <mxCell id="10" value="User Login" style="shape=umlLifeline;perimeter=lifelinePerimeter;whiteSpace=wrap;html=1;container=1;collapsible=0;recursiveResize=0;outlineConnect=0;" vertex="1" parent="1">
                    <mxGeometry x="350" y="150" width="100" height="540" as="geometry"/>
                </mxCell>
                <mxCell id="11" value="" style="html=1;points=[];perimeter=orthogonalPerimeter;fillColor=strokeColor;" vertex="1" parent="10">
                    <mxGeometry x="48" y="90" width="5" height="340" as="geometry"/>
                </mxCell>
                <mxCell id="13" value="Sistem" style="shape=umlLifeline;perimeter=lifelinePerimeter;whiteSpace=wrap;html=1;container=1;collapsible=0;recursiveResize=0;outlineConnect=0;" vertex="1" parent="1">
                    <mxGeometry x="550" y="150" width="100" height="540" as="geometry"/>
                </mxCell>
                <mxCell id="14" value="" style="html=1;points=[];perimeter=orthogonalPerimeter;fillColor=strokeColor;" vertex="1" parent="13">
                    <mxGeometry x="48" y="120" width="5" height="310" as="geometry"/>
                </mxCell>
                <mxCell id="18" value="isi username, password" style="html=1;verticalAlign=bottom;endArrow=block;" edge="1" parent="1" target="10">
                    <mxGeometry x="-0.0025" width="80" relative="1" as="geometry">
                        <mxPoint x="203" y="240" as="sourcePoint"/>
                        <mxPoint x="283" y="240" as="targetPoint"/>
                        <mxPoint as="offset"/>
                    </mxGeometry>
                </mxCell>
                <mxCell id="19" value="usrname, password" style="html=1;verticalAlign=bottom;endArrow=block;" edge="1" parent="1">
                    <mxGeometry x="-0.0025" width="80" relative="1" as="geometry">
                        <mxPoint x="400" y="270" as="sourcePoint"/>
                        <mxPoint x="596.5" y="270" as="targetPoint"/>
                        <mxPoint as="offset"/>
                    </mxGeometry>
                </mxCell>
                <mxCell id="20" value="Database" style="shape=umlLifeline;perimeter=lifelinePerimeter;whiteSpace=wrap;html=1;container=1;collapsible=0;recursiveResize=0;outlineConnect=0;" vertex="1" parent="1">
                    <mxGeometry x="750" y="150" width="101" height="540" as="geometry"/>
                </mxCell>
                <mxCell id="21" value="" style="html=1;points=[];perimeter=orthogonalPerimeter;fillColor=strokeColor;" vertex="1" parent="20">
                    <mxGeometry x="48" y="170" width="5" height="260" as="geometry"/>
                </mxCell>
                <mxCell id="24" value="usrname, password" style="html=1;verticalAlign=bottom;endArrow=block;" edge="1" parent="20">
                    <mxGeometry x="-0.0025" width="80" relative="1" as="geometry">
                        <mxPoint x="-150" y="170" as="sourcePoint"/>
                        <mxPoint x="46.5" y="170" as="targetPoint"/>
                        <mxPoint as="offset"/>
                    </mxGeometry>
                </mxCell>
                <mxCell id="39" value="" style="html=1;points=[];perimeter=orthogonalPerimeter;" vertex="1" parent="20">
                    <mxGeometry x="48" y="190" width="10" height="40" as="geometry"/>
                </mxCell>
                <mxCell id="40" value="validasi&lt;br&gt;" style="edgeStyle=orthogonalEdgeStyle;html=1;align=left;spacingLeft=2;endArrow=block;rounded=0;entryX=1;entryY=0;" edge="1" target="39" parent="20">
                    <mxGeometry relative="1" as="geometry">
                        <mxPoint x="53" y="170" as="sourcePoint"/>
                        <Array as="points">
                            <mxPoint x="83" y="170"/>
                        </Array>
                    </mxGeometry>
                </mxCell>
                <mxCell id="42" value="menampilkan dashboard" style="html=1;verticalAlign=bottom;labelBackgroundColor=none;endArrow=open;endFill=0;dashed=1;" edge="1" parent="20">
                    <mxGeometry width="160" relative="1" as="geometry">
                        <mxPoint x="52.999999999999886" y="369.9999999999998" as="sourcePoint"/>
                        <mxPoint x="-146.8333333333336" y="369.9999999999998" as="targetPoint"/>
                    </mxGeometry>
                </mxCell>
                <mxCell id="25" value="username, password salah" style="html=1;verticalAlign=bottom;labelBackgroundColor=none;endArrow=open;endFill=0;dashed=1;" edge="1" parent="1" source="13" target="10">
                    <mxGeometry width="160" relative="1" as="geometry">
                        <mxPoint x="530" y="410" as="sourcePoint"/>
                        <mxPoint x="80" y="700" as="targetPoint"/>
                    </mxGeometry>
                </mxCell>
                <mxCell id="27" value="Dashboard" style="shape=umlLifeline;perimeter=lifelinePerimeter;whiteSpace=wrap;html=1;container=1;collapsible=0;recursiveResize=0;outlineConnect=0;" vertex="1" parent="1">
                    <mxGeometry x="960" y="150" width="100" height="540" as="geometry"/>
                </mxCell>
                <mxCell id="28" value="" style="html=1;points=[];perimeter=orthogonalPerimeter;fillColor=strokeColor;" vertex="1" parent="27">
                    <mxGeometry x="48" y="270" width="5" height="160" as="geometry"/>
                </mxCell>
                <mxCell id="36" value="username, password salah" style="html=1;verticalAlign=bottom;labelBackgroundColor=none;endArrow=open;endFill=0;dashed=1;" edge="1" parent="1">
                    <mxGeometry width="160" relative="1" as="geometry">
                        <mxPoint x="799.83" y="390" as="sourcePoint"/>
                        <mxPoint x="599.9966666666666" y="390" as="targetPoint"/>
                    </mxGeometry>
                </mxCell>
                <mxCell id="37" value="menampilkan dashboard" style="html=1;verticalAlign=bottom;endArrow=block;" edge="1" parent="1">
                    <mxGeometry x="-0.0025" width="80" relative="1" as="geometry">
                        <mxPoint x="801.75" y="419.58" as="sourcePoint"/>
                        <mxPoint x="998.25" y="419.58" as="targetPoint"/>
                        <mxPoint as="offset"/>
                    </mxGeometry>
                </mxCell>
                <mxCell id="38" value="username, password salah" style="html=1;verticalAlign=bottom;labelBackgroundColor=none;endArrow=open;endFill=0;dashed=1;" edge="1" parent="1">
                    <mxGeometry width="160" relative="1" as="geometry">
                        <mxPoint x="399.8299999999999" y="449.9999999999998" as="sourcePoint"/>
                        <mxPoint x="199.99666666666644" y="449.9999999999998" as="targetPoint"/>
                    </mxGeometry>
                </mxCell>
                <mxCell id="41" value="menampilkan dashboard" style="html=1;verticalAlign=bottom;labelBackgroundColor=none;endArrow=open;endFill=0;dashed=1;" edge="1" parent="1">
                    <mxGeometry width="160" relative="1" as="geometry">
                        <mxPoint x="1009.8299999999999" y="489.9999999999998" as="sourcePoint"/>
                        <mxPoint x="809.9966666666664" y="489.9999999999998" as="targetPoint"/>
                    </mxGeometry>
                </mxCell>
                <mxCell id="43" value="menampilkan dashboard" style="html=1;verticalAlign=bottom;labelBackgroundColor=none;endArrow=open;endFill=0;dashed=1;" edge="1" parent="1">
                    <mxGeometry width="160" relative="1" as="geometry">
                        <mxPoint x="599.83" y="548.9999999999998" as="sourcePoint"/>
                        <mxPoint x="399.99666666666656" y="548.9999999999998" as="targetPoint"/>
                    </mxGeometry>
                </mxCell>
                <mxCell id="44" value="menampilkan dashboard" style="html=1;verticalAlign=bottom;labelBackgroundColor=none;endArrow=open;endFill=0;dashed=1;" edge="1" parent="1">
                    <mxGeometry width="160" relative="1" as="geometry">
                        <mxPoint x="399.83" y="579.9999999999998" as="sourcePoint"/>
                        <mxPoint x="199.9966666666665" y="579.9999999999998" as="targetPoint"/>
                    </mxGeometry>
                </mxCell>
            </root>
        </mxGraphModel>
    </diagram>
</mxfile>